General
      Complete name : Gangs.of.New.York.2002.BRRip.H264.AAC.5.1ch.Gopo.mp4
      Format : MPEG-4
      Format profile : Base Media
      Codec ID : isom
      File size : 2.55 GiB
      Duration : 2h 46mn
      Overall bit rate : 2 196 Kbps
      Encoded date : UTC 2010-02-04 14:13:35
      Tagged date : UTC 2010-02-04 14:13:35
   Video #1
      ID : 1
      Format : AVC
      Format/Info : Advanced Video Codec
      Format profile : High@L4.1
      Format settings, CABAC : Yes
      Format settings, ReFrames : 5 frames
      Codec ID : avc1
      Codec ID/Info : Advanced Video Coding
      Duration : 2h 46mn
      Bit rate mode : Variable
      Bit rate : 1 938 Kbps
      Maximum bit rate : 11.8 Mbps
      Width : 1 280 pixels
      Height : 544 pixels
      Display aspect ratio : 2.35:1
      Frame rate mode : Constant
      Frame rate : 23.976 fps
      Resolution : 24 bits
      Colorimetry : 4:2:0
      Scan type : Progressive
      Bits/(Pixel*Frame) : 0.116
      Stream size : 2.25 GiB (88%)
      Writing library : x264 core 84 r1416 fcf70c2
      Encoding settings : cabac=1 / ref=5 / deblock=1:0:0 / analyse=0x3:0x113 / me=hex / subme=7 / psy=1 / psy_rd=1.0:0.0 / mixed_ref=1 / me_range=16 / chroma_me=1 / trellis=0 / 8x8dct=1 / cqm=0 / deadzone=21,11 / fast_pskip=1 / chroma_qp_offset=-2 / threads=1 / sliced_threads=0 / nr=0 / decimate=1 / mbaff=0 / constrained_intra=0 / bframes=3 / b_pyramid=0 / b_adapt=1 / b_bias=0 / direct=1 / wpredb=1 / wpredp=2 / keyint=250 / keyint_min=25 / scenecut=40 / intra_refresh=0 / rc_lookahead=40 / rc=2pass / mbtree=1 / bitrate=1938 / ratetol=1.0 / qcomp=0.60 / qpmin=10 / qpmax=51 / qpstep=4 / cplxblur=20.0 / qblur=0.5 / vbv_maxrate=31250 / vbv_bufsize=31250 / ip_ratio=1.40 / aq=1:1.00
      Encoded date : UTC 2010-02-03 17:18:27
      Tagged date : UTC 2010-02-04 14:16:16
   Audio #2
      ID : 2
      Format : AAC
      Format/Info : Advanced Audio Codec
      Format version : Version 4
      Format profile : LC
      Format settings, SBR : No
      Codec ID : 40
      Duration : 2h 46mn
      Bit rate mode : Variable
      Bit rate : 255 Kbps
      Maximum bit rate : 403 Kbps
      Channel(s) : 6 channels
      Channel positions : Front: L C R, Rear: L R, LFE
      Sampling rate : 48.0 KHz
      Resolution : 16 bits
      Stream size : 303 MiB (12%)
      Encoded date : UTC 2010-02-04 14:15:57
      Tagged date : UTC 2010-02-04 14:16:16	
	Sample : YES
	Subtitle : English,Romanian

PLOT


1863. America was born in the streets. In this movie, we see Amsterdam Vallon returning to the Five Points of America to seek vengeance against the psychotic gangland kingpin Bill the Butcher who murdered his father years ago. With an eager pickpocket by his side and a whole new army, Vallon fights his way to seek vengeance on the Butcher and restore peace in the area. However this is more said than done.
Director: Martin Scorsese
CASTING 
     
      Leonardo DiCaprio	... 	Amsterdam Vallon
	Daniel Day-Lewis	... 	Bill 'The Butcher' Cutting
	Cameron Diaz	... 	Jenny Everdeane
	Jim Broadbent	... 	William 'Boss' Tweed
	John C. Reilly	... 	Happy Jack Mulraney
	Henry Thomas	... 	Johnny Sirocco
	Liam Neeson	... 	'Priest' Vallon
	Brendan Gleeson	... 	Walter 'Monk' McGinn
	Gary Lewis	... 	McGloin
	Stephen Graham	... 	Shang
	Eddie Marsan	... 	Killoran
	Alec McCowen	... 	Reverend Raleigh (as Alec Mccowen)
	David Hemmings	... 	Mr. Schermerhorn
	Larry Gilliard Jr.	... 	Jimmy Spoils
	Cara Seymour	... 	Hell-Cat Maggie

SOURCE: Gangs.of.New.York.2002.720p.BluRay.x264-SiNNERS.mkv

Notes: For best performance I suggest you to use KMPlayer(find it with google) for playback
I haven't tested the movies on a PS3 or Xbox or other devices than PC because I don't own one of them but feel free to test them if you have the oportunity.
